<svg width="622" height="176" viewBox="0 0 622 176" fill="none" xmlns="http://www.w3.org/2000/svg">
<g clip-path="url(#clip0_1_20)">
<path d="M164.796 26.429L134.988 16.3347L129.611 101.924L143.46 21.1629L148.073 23.7836L146.944 59.1538L152.37 26.2317L162.452 33.6313L151.52 115.693C150.601 132.799 139.699 136.221 128.131 130.239C116.828 124.875 117.777 119.245 119.233 100.179C120.645 81.735 129.469 0 129.469 0L13.418 25.4239L0 115.81C0.0801625 130.64 10.5321 142.64 23.2903 142.572L44.9774 144.108L95.2084 176L60.1096 102.368L30.9921 123.302L44.3052 88.7646L20.3675 68.4218L52.0872 66.9604L63.945 30.9366L72.0353 66.4116L104.871 66.0909L77.5542 88.8633L91.8971 145.218L110.501 145.68C115.724 145.649 122.723 146.136 129.703 145.544C141.438 144.996 150.015 140.685 154.788 134.056C157.26 130.979 158.919 127.323 159.351 123.136C160.418 112.752 170.16 22.3345 170.16 22.3345L164.802 26.4413L164.796 26.429Z" fill="#EF382B"/>
</g>
<g clip-path="url(#clip1_1_20)">
<path d="M210.581 117.358V34.5316H266.596V50.3297H231.275V64.8453H263.815V80.6435H231.275V101.56H266.596V117.358H210.581Z" fill="#1F2555"/>
<path d="M338.07 117.358H318.492V86.3782C318.492 83.8562 318.387 81.3465 318.184 78.8429C317.98 76.3394 317.598 74.4957 317.043 73.3056C316.377 71.8996 315.409 70.8883 314.151 70.2717C312.893 69.6612 311.203 69.3529 309.088 69.3529C307.491 69.3529 305.882 69.6489 304.248 70.2409C302.614 70.8328 300.875 71.7825 299.019 73.0774V117.358H279.552V54.8928H299.019V61.793C302.207 59.086 305.308 56.9709 308.336 55.454C311.358 53.9371 314.706 53.1724 318.375 53.1724C324.751 53.1724 329.628 55.1827 333.001 59.2093C336.374 63.2359 338.064 69.0631 338.064 76.7032V117.364L338.07 117.358Z" fill="#1F2555"/>
<path d="M409.273 110.18C409.273 115.964 408.441 120.879 406.77 124.918C405.098 128.957 402.823 132.114 399.931 134.371C397.039 136.671 393.567 138.33 389.528 139.347C385.489 140.365 381 140.876 376.067 140.876C371.911 140.876 367.977 140.605 364.246 140.069C360.522 139.532 357.285 138.909 354.541 138.206V122.575H356.822C357.784 122.945 358.925 123.352 360.244 123.796C361.558 124.24 362.884 124.647 364.222 125.017C365.813 125.424 367.373 125.757 368.896 126.016C370.419 126.275 371.973 126.404 373.57 126.404C376.869 126.404 379.625 126.059 381.833 125.374C384.04 124.69 385.699 123.716 386.809 122.451C387.919 121.15 388.702 119.621 389.146 117.864C389.59 116.1 389.812 113.886 389.812 111.216V110.051C387.623 111.981 385.095 113.529 382.221 114.694C379.348 115.86 376.388 116.445 373.348 116.445C365.264 116.445 359.023 113.812 354.633 108.546C350.236 103.28 348.041 95.2702 348.041 84.516C348.041 79.62 348.72 75.2295 350.07 71.3324C351.42 67.4414 353.307 64.1239 355.718 61.3737C358.018 58.7407 360.799 56.712 364.061 55.2814C367.323 53.857 370.715 53.1417 374.242 53.1417C377.43 53.1417 380.285 53.5486 382.807 54.3626C385.329 55.1766 387.629 56.2742 389.707 57.6431L390.429 54.8621H409.285V110.18H409.273ZM389.806 97.6627V69.353C388.844 68.909 387.654 68.539 386.248 68.2431C384.836 67.9471 383.43 67.7991 382.018 67.7991C377.344 67.7991 373.835 69.3098 371.479 72.3313C369.124 75.3529 367.946 79.5706 367.946 84.9847C367.946 87.6917 368.125 89.9794 368.476 91.854C368.828 93.7286 369.488 95.3873 370.45 96.8302C371.375 98.2423 372.589 99.303 374.094 100.031C375.599 100.752 377.516 101.116 379.853 101.116C381.598 101.116 383.313 100.82 384.996 100.228C386.686 99.6359 388.289 98.7788 389.806 97.6689V97.6627Z" fill="#1F2555"/>
<path d="M458.61 110.735C457.278 111.845 456.082 112.85 455.021 113.738C453.967 114.632 452.549 115.52 450.766 116.408C449.021 117.259 447.326 117.913 445.679 118.357C444.027 118.801 441.72 119.023 438.754 119.023C433.229 119.023 428.642 117.167 424.985 113.461C421.334 109.755 419.509 105.081 419.509 99.4448C419.509 94.8138 420.434 91.0647 422.29 88.2097C424.146 85.3547 426.81 83.0916 430.3 81.4205C433.821 79.7124 438.033 78.5285 442.929 77.8625C447.825 77.1966 453.091 76.6786 458.727 76.3025V75.9695C458.727 72.5225 457.457 70.1361 454.916 68.8227C452.376 67.5092 448.565 66.8494 443.484 66.8494C441.184 66.8494 438.495 67.2687 435.418 68.1012C432.341 68.9337 429.338 70.0004 426.409 71.3015H424.738V56.2248C426.668 55.6698 429.782 55.01 434.086 54.2516C438.384 53.4931 442.726 53.1108 447.104 53.1108C457.858 53.1108 465.689 54.8991 470.604 58.4755C475.518 62.052 477.972 67.5154 477.972 74.8595V117.358H458.616V110.735H458.61ZM458.61 101.054V88.037C455.311 88.37 452.641 88.6598 450.6 88.9003C448.559 89.1408 446.555 89.6156 444.594 90.3186C442.886 90.9105 441.56 91.8108 440.617 93.0133C439.673 94.2219 439.198 95.8251 439.198 97.823C439.198 100.752 439.988 102.762 441.56 103.86C443.139 104.957 445.463 105.5 448.54 105.5C450.248 105.5 451.987 105.112 453.769 104.335C455.552 103.558 457.161 102.46 458.61 101.054Z" fill="#1F2555"/>
<path d="M549.163 110.18C549.163 115.964 548.33 120.879 546.659 124.918C544.988 128.957 542.707 132.114 539.815 134.371C536.923 136.671 533.457 138.33 529.412 139.347C525.367 140.365 520.884 140.876 515.951 140.876C511.801 140.876 507.861 140.605 504.13 140.069C500.405 139.532 497.168 138.909 494.424 138.206V122.575H496.706C497.668 122.945 498.808 123.352 500.128 123.796C501.441 124.24 502.767 124.647 504.105 125.017C505.702 125.424 507.256 125.757 508.779 126.016C510.296 126.275 511.856 126.404 513.454 126.404C516.753 126.404 519.509 126.059 521.716 125.374C523.924 124.69 525.583 123.716 526.693 122.451C527.803 121.15 528.586 119.621 529.03 117.864C529.474 116.1 529.696 113.886 529.696 111.216V110.051C527.507 111.981 524.978 113.529 522.105 114.694C519.231 115.86 516.272 116.445 513.232 116.445C505.147 116.445 498.907 113.812 494.517 108.546C490.12 103.28 487.925 95.2702 487.925 84.516C487.925 79.62 488.597 75.2295 489.954 71.3324C491.31 67.4414 493.191 64.1239 495.596 61.3737C497.896 58.7407 500.677 56.712 503.939 55.2814C507.201 53.857 510.592 53.1417 514.119 53.1417C517.307 53.1417 520.162 53.5486 522.685 54.3626C525.207 55.1766 527.507 56.2742 529.585 57.6431L530.306 54.8621H549.163V110.18ZM529.696 97.6627V69.353C528.734 68.909 527.544 68.539 526.138 68.2431C524.726 67.9471 523.32 67.7991 521.908 67.7991C517.233 67.7991 513.725 69.3098 511.369 72.3313C509.014 75.3529 507.836 79.5706 507.836 84.9847C507.836 87.6917 508.009 89.9794 508.366 91.854C508.718 93.7286 509.378 95.3873 510.339 96.8302C511.264 98.2423 512.479 99.303 513.984 100.031C515.482 100.752 517.4 101.116 519.743 101.116C521.482 101.116 523.196 100.82 524.886 100.228C526.575 99.6359 528.173 98.7788 529.696 97.6689V97.6627Z" fill="#1F2555"/>
<path d="M596.058 119.023C584.268 119.023 575.228 116.205 568.944 110.569C562.661 104.933 559.516 96.9042 559.516 86.4831C559.516 76.062 562.445 68.1444 568.303 62.0643C574.161 55.9843 582.356 52.9443 592.888 52.9443C602.459 52.9443 609.649 55.5218 614.471 60.6769C619.293 65.832 621.704 73.2131 621.704 82.8141V89.8252H579.039C579.224 92.7173 579.834 95.1345 580.876 97.083C581.912 99.0316 583.287 100.579 584.989 101.726C586.66 102.879 588.603 103.7 590.829 104.205C593.055 104.705 595.484 104.957 598.117 104.957C600.38 104.957 602.6 104.705 604.789 104.205C606.978 103.706 608.976 103.046 610.795 102.232C612.393 101.529 613.86 100.764 615.217 99.9504C616.573 99.1364 617.671 98.415 618.528 97.7798H620.588V113.856C618.991 114.484 617.535 115.07 616.222 115.607C614.902 116.143 613.096 116.692 610.802 117.247C608.687 117.802 606.51 118.24 604.265 118.554C602.021 118.869 599.289 119.029 596.058 119.029V119.023ZM602.514 78.0845C602.403 73.9716 601.447 70.8329 599.647 68.687C597.846 66.5349 595.096 65.462 591.384 65.462C587.672 65.462 584.644 66.5966 582.51 68.8535C580.377 71.1165 579.199 74.1935 578.977 78.0845H602.508H602.514Z" fill="#1F2555"/>
</g>
<defs>
<clipPath id="clip0_1_20">
<rect width="170.154" height="176" fill="white"/>
</clipPath>
<clipPath id="clip1_1_20">
<rect width="411.117" height="106.357" fill="white" transform="translate(210.581 34.5316)"/>
</clipPath>
</defs>
</svg>
