<svg width="807" height="523" viewBox="0 0 807 523" fill="none" xmlns="http://www.w3.org/2000/svg">
<mask id="path-1-inside-1_155_19" fill="white">
<path fill-rule="evenodd" clip-rule="evenodd" d="M636 522.865C731.062 519.189 807 440.962 807 345C807 246.693 727.307 167 629 167C622.425 167 615.933 167.357 609.542 168.051C580.036 85.8186 501.387 27 409 27C291.363 27 196 122.363 196 240C196 250.476 196.756 260.776 198.217 270.847C193.389 270.288 188.478 270 183.5 270C113.636 270 57 326.636 57 396.5C57 461.804 106.483 515.55 170 522.288V523H183.5H629H636V522.865Z"/>
</mask>
<path fill-rule="evenodd" clip-rule="evenodd" d="M636 522.865C731.062 519.189 807 440.962 807 345C807 246.693 727.307 167 629 167C622.425 167 615.933 167.357 609.542 168.051C580.036 85.8186 501.387 27 409 27C291.363 27 196 122.363 196 240C196 250.476 196.756 260.776 198.217 270.847C193.389 270.288 188.478 270 183.5 270C113.636 270 57 326.636 57 396.5C57 461.804 106.483 515.55 170 522.288V523H183.5H629H636V522.865Z" fill="#BABFDD"/>
<path d="M636 522.865L635.227 502.88L616 503.623V522.865H636ZM609.542 168.051L590.717 174.806L596.039 189.637L611.704 187.934L609.542 168.051ZM198.217 270.847L195.915 290.714L221.743 293.707L218.01 267.976L198.217 270.847ZM170 522.288H190V504.298L172.11 502.4L170 522.288ZM170 523H150V543H170V523ZM636 523V543H656V523H636ZM636.773 542.85C742.53 538.76 827 451.749 827 345H787C787 430.176 719.594 499.617 635.227 502.88L636.773 542.85ZM827 345C827 235.648 738.352 147 629 147V187C716.261 187 787 257.739 787 345H827ZM629 147C621.701 147 614.487 147.396 607.38 148.168L611.704 187.934C617.378 187.317 623.148 187 629 187V147ZM628.367 161.297C596.1 71.3706 510.093 7 409 7V47C492.681 47 563.971 100.267 590.717 174.806L628.367 161.297ZM409 7C280.318 7 176 111.318 176 240H216C216 133.409 302.409 47 409 47V7ZM176 240C176 251.44 176.826 262.699 178.424 273.718L218.01 267.976C216.687 258.852 216 249.512 216 240H176ZM200.519 250.98C194.929 250.332 189.249 250 183.5 250V290C187.707 290 191.85 290.243 195.915 290.714L200.519 250.98ZM183.5 250C102.59 250 37 315.59 37 396.5H77C77 337.682 124.682 290 183.5 290V250ZM37 396.5C37 472.141 94.3101 534.371 167.89 542.177L172.11 502.4C118.657 496.729 77 451.466 77 396.5H37ZM190 523V522.288H150V523H190ZM183.5 503H170V543H183.5V503ZM629 503H183.5V543H629V503ZM636 503H629V543H636V503ZM616 522.865V523H656V522.865H616Z" fill="#1E2552" mask="url(#path-1-inside-1_155_19)"/>
<path d="M467 295C463.601 318.607 482.171 340.986 506 342C530.724 343.052 552.026 319.493 548.5 295" stroke="#1E2552" stroke-width="20"/>
<path d="M294.402 295C291.004 318.607 309.573 340.986 333.402 342C358.126 343.052 379.429 319.493 375.902 295" stroke="#1E2552" stroke-width="20"/>
<line x1="372" y1="402" x2="471" y2="402" stroke="#1E2552" stroke-width="20"/>
<path d="M467 105.5C489.448 110.869 502.27 118.089 518.5 134.5C535.453 151.642 542.754 165.363 547.5 189" stroke="#1E2552" stroke-width="20"/>
<path d="M104.598 224V213.473L140.848 168.023V167.428H105.788V153.697H161.124V165.002L126.613 209.674V210.269H162.314V224H104.598Z" fill="#1E2552"/>
<path d="M9.4713 155V141.877L54.6597 85.2205V84.4788H10.9548V67.362H79.9355V81.4548L36.9152 137.141V137.883H81.4189V155H9.4713Z" fill="#1E2552"/>
</svg>
