<svg width="603" height="170" viewBox="0 0 603 170" fill="none" xmlns="http://www.w3.org/2000/svg">
<g clip-path="url(#clip0_2_22)">
<path d="M224.93 105.66V79.44H247.17C247.37 83.01 249.43 85.86 253.37 87.98C257.31 90.11 262.16 91.17 267.94 91.17C272.93 91.17 276.81 90.47 279.6 89.08C282.39 87.69 283.78 85.92 283.78 83.77C283.78 81.78 282.5 80.23 279.94 79.12C277.38 78.02 272.36 76.97 264.88 75.96C249.46 73.96 238.34 70.92 231.52 66.86C224.7 62.79 221.28 57.4 221.28 50.69C221.28 44.39 224.49 39.08 230.92 34.75C237.35 30.42 245.88 28.26 256.51 28.26C265.1 28.26 273.14 29.53 280.62 32.08V29.44H302.37V51.56H280.62C278.65 46.26 271.7 43.61 259.76 43.61C250.97 43.61 246.57 45.55 246.57 49.44C246.57 50.91 247.47 52.03 249.28 52.79C251.08 53.55 255.69 54.46 263.11 55.51C274.85 57.14 283.65 58.76 289.49 60.39C295.33 62.02 300 64.71 303.51 68.46C307.02 72.21 308.78 76.71 308.78 81.96C308.78 89.41 305.45 95.52 298.79 100.27C292.13 105.02 282.7 107.4 270.5 107.4C259.15 107.4 251.37 105.55 247.17 101.85V105.67H224.93V105.66Z" fill="#6F7271"/>
<path d="M319.8 47V29.44H331.91V17.47L362.32 0V29.45H379.84V47.01H362.32V80.06C362.32 83.06 362.8 85.07 363.75 86.1C364.7 87.13 366.88 87.64 370.29 87.64C373.11 87.64 376.29 87.12 379.84 86.07V102.92C372.03 105.49 364.39 106.78 356.91 106.78C340.24 106.78 331.91 100.16 331.91 86.91V47.02H319.8V47Z" fill="#6F7271"/>
<path d="M500 88.1V105.66H454.24V99.64C446.04 104.39 437.38 106.77 428.26 106.77C419.14 106.77 410.66 104.62 403.8 100.31C396.94 96.01 393.52 90.23 393.52 82.99C393.52 75.75 397.13 69.58 404.35 64.65C411.57 59.72 420.88 57.25 432.3 57.25C438.66 57.25 445.98 58.54 454.25 61.11V56.46C454.25 52.58 452.61 49.39 449.33 46.89C446.05 44.4 441.65 43.15 436.14 43.15C429.32 43.15 423.48 45.15 418.62 49.13L394.11 45.59C401.2 33.57 416.58 27.56 440.27 27.56C449.46 27.56 457.07 28.39 463.1 30.04C469.14 31.69 473.63 33.83 476.58 36.46C479.53 39.09 481.61 41.96 482.83 45.08C484.04 48.2 484.65 53.28 484.65 60.32V88.11H500V88.1ZM454.24 77.47C446.89 73.8 441.02 71.96 436.62 71.96C433.14 71.96 429.98 72.77 427.12 74.4C424.27 76.03 422.84 78.39 422.84 81.49C422.84 84.27 423.99 86.66 426.28 88.65C428.58 90.65 431.53 91.64 435.14 91.64C440.78 91.64 447.15 88.99 454.23 83.69V77.47H454.24Z" fill="#6F7271"/>
<path d="M585.66 88.1V105.66H518.64V88.1H536.26V47H519.73V29.44H564.12V48.81C565.83 43.25 569.71 38.43 575.78 34.36C581.85 30.29 589.02 28.26 597.28 28.26C598.66 28.26 600.3 28.29 602.2 28.34V51.33C594.52 51.33 588.26 52.01 583.4 53.38C578.54 54.75 574.54 57.74 571.39 62.36C568.24 66.98 566.67 72.44 566.67 78.74V88.11H585.66V88.1Z" fill="#6F7271"/>
<path d="M243.67 121.69H247L268.74 168.7H264.94L259.01 155.63H231.47L225.54 168.7H221.94L243.68 121.69H243.67ZM257.54 152.5L245.27 125.49L232.93 152.5H257.54Z" fill="#6F7271"/>
<path d="M277.21 145.5V145.37C277.21 132.17 287.08 121.23 300.55 121.23C308.89 121.23 313.89 124.3 318.69 128.7L316.22 131.23C312.15 127.3 307.48 124.36 300.48 124.36C289.28 124.36 280.81 133.5 280.81 145.23V145.36C280.81 157.16 289.41 166.36 300.55 166.36C307.28 166.36 311.89 163.76 316.62 159.09L318.95 161.36C314.02 166.23 308.68 169.5 300.41 169.5C287.07 169.5 277.2 158.9 277.2 145.49L277.21 145.5Z" fill="#6F7271"/>
<path d="M349.56 121.69H352.89L374.63 168.7H370.83L364.9 155.63H337.36L331.43 168.7H327.83L349.57 121.69H349.56ZM363.43 152.5L351.16 125.49L338.82 152.5H363.43Z" fill="#6F7271"/>
<path d="M387.84 122.02H403.38C418.05 122.02 428.19 132.09 428.19 145.23V145.36C428.19 158.5 418.05 168.7 403.38 168.7H387.84V122.02ZM391.31 125.22V165.5H403.38C416.38 165.5 424.59 156.63 424.59 145.5V145.37C424.59 134.3 416.39 125.23 403.38 125.23H391.31V125.22Z" fill="#6F7271"/>
<path d="M443.32 122.02H478.26V125.22H446.79V143.56H473.53V146.76H446.79V165.5H478.59V168.7H443.32V122.02Z" fill="#6F7271"/>
<path d="M498.34 121.22H502.75L519.76 162.82L538.98 120.46L542.89 120.63L550.72 168.61H547.15L540.35 127.09L519.77 169.49H519.5L500.89 125.48L494.59 168.61H491.26L498.35 121.22H498.34Z" fill="#6F7271"/>
<path d="M575.45 150.23L555.45 122.02H559.78L577.25 147.09L594.79 122.02H598.92L578.92 150.16V168.7H575.45V150.23Z" fill="#6F7271"/>
<path d="M86.2 35.87C85.39 35.84 84.57 35.82 83.73 35.82C70.36 35.82 58.92 40.01 49.41 48.38L1.41 40.94C15.29 15.72 45.43 3.10999 91.83 3.10999C109.82 3.10999 124.73 4.84999 136.56 8.31999C148.39 11.79 157.19 16.28 162.97 21.79C168.75 27.3 172.83 33.33 175.21 39.88C177.59 46.43 178.78 57.09 178.78 71.85V130.18H208.86V167.03H119.21V154.39C103.14 164.36 86.17 169.35 68.31 169.35C50.45 169.35 33.83 164.84 20.4 155.8C6.97 146.75 0.25 134.63 0.25 119.43C0.25 104.23 7.32 91.29 21.46 80.93C35.6 70.58 53.85 65.4 76.22 65.4C79.03 65.4 81.76 65.54 84.76 65.81L84.12 79.02L32.54 93.07L82.53 112.02L79.95 165.42L113.42 123.73L163.41 142.68L134.11 97.96L167.58 56.27L116 70.32L94 36.75C91.62 36.31 88.86 35.95 86.2 35.85V35.87Z" fill="#EA0029"/>
</g>
<defs>
<clipPath id="clip0_2_22">
<rect width="602.19" height="169.58" fill="white"/>
</clipPath>
</defs>
</svg>
